<svg class="svgLogos" viewBox="0 0 300 100" xmlns="http://www.w3.org/2000/svg" xmlns:xlink="http://www.w3.org/1999/xlink">
	<g id="github">
		<path fill="#24292F" d="M297.426,383.491c-20.754,0-37.531,17.188-37.531,38.451c0,16.997,10.75,31.385,25.663,36.476
			c1.864,0.383,2.547-0.827,2.547-1.844c0-0.893-0.062-3.948-0.062-7.132c-10.44,2.293-12.614-4.583-12.614-4.583
			c-1.677-4.455-4.163-5.602-4.163-5.602c-3.418-2.356,0.249-2.356,0.249-2.356c3.791,0.255,5.779,3.948,5.779,3.948
			c3.355,5.856,8.761,4.201,10.936,3.182c0.31-2.481,1.305-4.201,2.361-5.155c-8.326-0.893-17.087-4.202-17.087-18.972
			c0-4.202,1.49-7.639,3.852-10.313c-0.373-0.955-1.677-4.903,0.373-10.187c0,0,3.169-1.018,10.314,3.947
			c3.06-0.841,6.215-1.27,9.383-1.273c3.169,0,6.399,0.445,9.382,1.273c7.147-4.965,10.316-3.947,10.316-3.947
			c2.052,5.284,0.746,9.232,0.372,10.187c2.424,2.673,3.854,6.111,3.854,10.313c0,14.77-8.76,18.016-17.15,18.972
			c1.368,1.208,2.549,3.501,2.549,7.129c0,5.157-0.062,9.294-0.062,10.567c0,1.019,0.684,2.229,2.546,1.848
			c14.913-5.095,25.663-19.483,25.663-36.479C334.958,400.678,318.117,383.491,297.426,383.491z"
		/>
	</g>
	<g id="twitter">
		<path fill="#010101" d="M232.573,392.263c-1.179,0.638-2.39,1.177-3.628,1.613c1.465-2.023,2.583-4.405,3.265-7.011
			c0.153-0.585-0.006-1.224-0.398-1.606c-0.393-0.381-0.939-0.428-1.371-0.115c-2.628,1.904-5.465,3.273-8.439,4.073
			c-2.995-3.575-7.064-5.609-11.27-5.609c-8.878,0-16.1,8.822-16.1,19.665c0,0.854,0.044,1.703,0.132,2.541
			c-11.017-1.183-21.258-7.794-28.292-18.332c-0.251-0.377-0.636-0.578-1.032-0.54c-0.396,0.038-0.751,0.311-0.951,0.73
			c-1.426,2.989-2.18,6.408-2.18,9.887c0,4.738,1.384,9.233,3.831,12.747c-0.744-0.314-1.466-0.708-2.155-1.174
			c-0.37-0.252-0.821-0.249-1.189,0.009c-0.366,0.257-0.598,0.731-0.607,1.249c-0.001,0.087-0.001,0.174-0.001,0.262
			c0,7.073,3.117,13.441,7.881,16.913c-0.409-0.051-0.818-0.123-1.225-0.22c-0.419-0.097-0.85,0.083-1.133,0.475
			c-0.283,0.389-0.375,0.934-0.246,1.429c1.764,6.727,6.305,11.673,11.794,13.181c-4.553,3.483-9.759,5.309-15.225,5.309
			c-1.14,0-2.288-0.083-3.41-0.245c-0.558-0.083-1.091,0.319-1.281,0.969c-0.19,0.647,0.011,1.37,0.486,1.741
			c7.021,5.5,15.141,8.406,23.479,8.406c16.393,0,26.647-9.442,32.362-17.36c7.127-9.876,11.215-22.95,11.215-35.864
			c0-0.54-0.007-1.085-0.021-1.626c2.813-2.588,5.233-5.721,7.204-9.321c0.299-0.545,0.267-1.268-0.081-1.771
			C233.642,392.159,233.065,391.996,232.573,392.263z"
		/>
	</g>
	<g id="codepen">
		<path fill="#0D0D0D" d="M428.381,426.28l-8.064-5.392l8.064-5.394V426.28z M400.547,449.139V434.11l13.975-9.345l11.278,7.542
			L400.547,449.139z M397.325,428.51l-11.398-7.624l11.398-7.625l11.399,7.625L397.325,428.51z M394.101,449.139l-25.251-16.832
			l11.279-7.542l13.972,9.345V449.139z M366.268,415.494l8.066,5.394l-8.066,5.392V415.494z M394.101,392.633v15.031l-13.971,9.346
			l-11.279-7.545L394.101,392.633z M400.547,392.633l25.253,16.832l-11.278,7.545l-13.975-9.346V392.633L400.547,392.633z
			M434.797,409.041c-0.007-0.049-0.019-0.093-0.025-0.14c-0.017-0.092-0.034-0.183-0.057-0.27c-0.014-0.054-0.034-0.105-0.051-0.156
			c-0.025-0.081-0.051-0.158-0.08-0.235c-0.021-0.054-0.049-0.107-0.074-0.157c-0.032-0.075-0.068-0.146-0.109-0.213
			c-0.028-0.051-0.062-0.1-0.092-0.15c-0.043-0.068-0.087-0.133-0.136-0.195c-0.035-0.048-0.074-0.096-0.11-0.139
			c-0.052-0.061-0.106-0.12-0.161-0.177c-0.043-0.042-0.083-0.087-0.127-0.124c-0.062-0.053-0.123-0.105-0.184-0.155
			c-0.049-0.038-0.095-0.075-0.145-0.111c-0.021-0.011-0.035-0.027-0.055-0.039l-34.279-22.852c-1.082-0.721-2.491-0.721-3.575,0
			l-34.276,22.852c-0.018,0.011-0.035,0.027-0.055,0.039c-0.051,0.036-0.098,0.073-0.145,0.111c-0.063,0.05-0.124,0.101-0.183,0.155
			c-0.045,0.037-0.087,0.082-0.13,0.124c-0.056,0.057-0.11,0.114-0.16,0.177c-0.038,0.043-0.075,0.091-0.111,0.139
			c-0.047,0.063-0.092,0.127-0.133,0.195c-0.034,0.049-0.063,0.1-0.094,0.15c-0.04,0.068-0.075,0.139-0.111,0.213
			c-0.021,0.05-0.049,0.103-0.071,0.157c-0.031,0.077-0.057,0.154-0.082,0.235c-0.018,0.051-0.037,0.102-0.05,0.156
			c-0.025,0.087-0.041,0.178-0.055,0.27c-0.012,0.047-0.023,0.091-0.027,0.14c-0.019,0.136-0.03,0.277-0.03,0.42v22.851
			c0,0.141,0.012,0.281,0.03,0.421c0.004,0.046,0.016,0.092,0.027,0.14c0.016,0.091,0.029,0.181,0.055,0.27
			c0.014,0.055,0.032,0.106,0.05,0.157c0.025,0.078,0.051,0.156,0.082,0.236c0.022,0.052,0.05,0.104,0.071,0.155
			c0.036,0.072,0.071,0.144,0.111,0.216c0.03,0.049,0.06,0.098,0.094,0.146c0.041,0.068,0.086,0.132,0.133,0.195
			c0.036,0.05,0.073,0.096,0.111,0.141c0.05,0.058,0.104,0.12,0.16,0.174c0.043,0.045,0.085,0.087,0.13,0.127
			c0.059,0.055,0.119,0.105,0.183,0.154c0.047,0.037,0.093,0.076,0.145,0.11c0.02,0.014,0.037,0.028,0.055,0.04l34.276,22.852
			c0.54,0.362,1.164,0.541,1.787,0.541c0.624,0,1.246-0.179,1.788-0.541l34.279-22.852c0.018-0.012,0.034-0.026,0.052-0.04
			c0.051-0.034,0.097-0.073,0.147-0.11c0.061-0.05,0.121-0.1,0.183-0.154c0.044-0.04,0.083-0.082,0.127-0.127
			c0.055-0.054,0.11-0.115,0.161-0.174c0.037-0.045,0.075-0.091,0.111-0.141c0.049-0.063,0.092-0.127,0.135-0.195
			c0.03-0.049,0.063-0.098,0.092-0.146c0.042-0.073,0.077-0.145,0.109-0.216c0.025-0.052,0.051-0.104,0.074-0.155
			c0.029-0.08,0.055-0.158,0.08-0.236c0.018-0.051,0.038-0.103,0.052-0.157c0.022-0.089,0.04-0.179,0.056-0.27
			c0.007-0.048,0.019-0.094,0.026-0.14c0.019-0.14,0.026-0.28,0.026-0.421v-22.851C434.825,409.318,434.817,409.177,434.797,409.041z
			"
		/>
	</g>
</svg>
